<svg id="visual" viewBox="0 0 1920 1080" width="1920" height="1080" xmlns="http://www.w3.org/2000/svg" xmlns:xlink="http://www.w3.org/1999/xlink" version="1.1"><rect x="0" y="0" width="1920" height="1080" fill="#0056a9"></rect><defs><linearGradient id="grad1_0" x1="43.8%" y1="0%" x2="100%" y2="100%"><stop offset="14.444444444444446%" stop-color="#0056a9" stop-opacity="1"></stop><stop offset="85.55555555555554%" stop-color="#0056a9" stop-opacity="1"></stop></linearGradient></defs><defs><linearGradient id="grad2_0" x1="0%" y1="0%" x2="56.3%" y2="100%"><stop offset="14.444444444444446%" stop-color="#0056a9" stop-opacity="1"></stop><stop offset="85.55555555555554%" stop-color="#0056a9" stop-opacity="1"></stop></linearGradient></defs><g transform="translate(1920, 0)"><path d="M0 540C-73.9 534.4 -147.8 528.9 -205.9 497C-264 465.2 -306.3 407.2 -357.1 357.1C-407.8 307 -467 264.8 -498.9 206.6C-530.8 148.5 -535.4 74.2 -540 0L0 0Z" fill="#063970"></path></g><g transform="translate(0, 1080)"><path d="M0 -540C61.2 -513.2 122.4 -486.3 192.9 -465.6C263.3 -444.9 343.1 -430.4 381.8 -381.8C420.6 -333.3 418.4 -250.7 437.9 -181.4C457.5 -112.1 498.7 -56 540 0L0 0Z" fill="#063970"></path></g></svg>