<svg id="visual" viewBox="0 0 1920 1080" width="1920" height="1080" xmlns="http://www.w3.org/2000/svg" xmlns:xlink="http://www.w3.org/1999/xlink" version="1.1"><rect x="0" y="0" width="1920" height="1080" fill="#063970"></rect><path d="M0 649L45.7 673.7C91.3 698.3 182.7 747.7 274.2 758C365.7 768.3 457.3 739.7 548.8 730.8C640.3 722 731.7 733 823 749.2C914.3 765.3 1005.7 786.7 1097 793.5C1188.3 800.3 1279.7 792.7 1371.2 763.5C1462.7 734.3 1554.3 683.7 1645.8 687.2C1737.3 690.7 1828.7 748.3 1874.3 777.2L1920 806L1920 1081L1874.3 1081C1828.7 1081 1737.3 1081 1645.8 1081C1554.3 1081 1462.7 1081 1371.2 1081C1279.7 1081 1188.3 1081 1097 1081C1005.7 1081 914.3 1081 823 1081C731.7 1081 640.3 1081 548.8 1081C457.3 1081 365.7 1081 274.2 1081C182.7 1081 91.3 1081 45.7 1081L0 1081Z" fill="#0056a9"></path><path d="M0 830L45.7 835.7C91.3 841.3 182.7 852.7 274.2 853.7C365.7 854.7 457.3 845.3 548.8 844C640.3 842.7 731.7 849.3 823 831C914.3 812.7 1005.7 769.3 1097 760C1188.3 750.7 1279.7 775.3 1371.2 780.3C1462.7 785.3 1554.3 770.7 1645.8 765.8C1737.3 761 1828.7 766 1874.3 768.5L1920 771L1920 1081L1874.3 1081C1828.7 1081 1737.3 1081 1645.8 1081C1554.3 1081 1462.7 1081 1371.2 1081C1279.7 1081 1188.3 1081 1097 1081C1005.7 1081 914.3 1081 823 1081C731.7 1081 640.3 1081 548.8 1081C457.3 1081 365.7 1081 274.2 1081C182.7 1081 91.3 1081 45.7 1081L0 1081Z" fill="#005ebe"></path><path d="M0 885L45.7 879C91.3 873 182.7 861 274.2 862.2C365.7 863.3 457.3 877.7 548.8 876.7C640.3 875.7 731.7 859.3 823 847.2C914.3 835 1005.7 827 1097 818.3C1188.3 809.7 1279.7 800.3 1371.2 802.7C1462.7 805 1554.3 819 1645.8 824.7C1737.3 830.3 1828.7 827.7 1874.3 826.3L1920 825L1920 1081L1874.3 1081C1828.7 1081 1737.3 1081 1645.8 1081C1554.3 1081 1462.7 1081 1371.2 1081C1279.7 1081 1188.3 1081 1097 1081C1005.7 1081 914.3 1081 823 1081C731.7 1081 640.3 1081 548.8 1081C457.3 1081 365.7 1081 274.2 1081C182.7 1081 91.3 1081 45.7 1081L0 1081Z" fill="#0065d4"></path><path d="M0 886L45.7 895.7C91.3 905.3 182.7 924.7 274.2 922.3C365.7 920 457.3 896 548.8 887.2C640.3 878.3 731.7 884.7 823 893.8C914.3 903 1005.7 915 1097 913C1188.3 911 1279.7 895 1371.2 886.7C1462.7 878.3 1554.3 877.7 1645.8 879.2C1737.3 880.7 1828.7 884.3 1874.3 886.2L1920 888L1920 1081L1874.3 1081C1828.7 1081 1737.3 1081 1645.8 1081C1554.3 1081 1462.7 1081 1371.2 1081C1279.7 1081 1188.3 1081 1097 1081C1005.7 1081 914.3 1081 823 1081C731.7 1081 640.3 1081 548.8 1081C457.3 1081 365.7 1081 274.2 1081C182.7 1081 91.3 1081 45.7 1081L0 1081Z" fill="#006de9"></path><path d="M0 999L45.7 995.5C91.3 992 182.7 985 274.2 987.3C365.7 989.7 457.3 1001.3 548.8 1002.8C640.3 1004.3 731.7 995.7 823 987C914.3 978.3 1005.7 969.7 1097 971.7C1188.3 973.7 1279.7 986.3 1371.2 989.5C1462.7 992.7 1554.3 986.3 1645.8 979.7C1737.3 973 1828.7 966 1874.3 962.5L1920 959L1920 1081L1874.3 1081C1828.7 1081 1737.3 1081 1645.8 1081C1554.3 1081 1462.7 1081 1371.2 1081C1279.7 1081 1188.3 1081 1097 1081C1005.7 1081 914.3 1081 823 1081C731.7 1081 640.3 1081 548.8 1081C457.3 1081 365.7 1081 274.2 1081C182.7 1081 91.3 1081 45.7 1081L0 1081Z" fill="#0074ff"></path></svg>